<svg version="1" xmlns="http://www.w3.org/2000/svg" width="666.667" height="666.667" viewBox="0 0 500.000000 500.000000"><path d="M217.9 1.5c-12.7 3.4-25.5 13.4-31.1 24.1-8.4 16.1-7.7 35 2 50 19.5 30.2 64.4 30 83.9-.4 9.4-14.6 10.3-31.5 2.5-48.1-5.6-12-20.8-23.6-34.2-26.1-7-1.3-17.4-1.1-23.1.5z"/><path d="M424.3 47.8c-.9.6-9.8 15.6-18.5 31.2-1.1 1.9-2.3 3.9-2.8 4.3-.4.5-3.6-.8-7.1-2.7l-6.4-3.5-10.2 17.7c-9.6 16.9-10 17.8-8.2 19.1 1.9 1.3 1.9 1.4 0 4.5-2.8 4.6-5.3 13.9-5.4 20.4-.1 8.1 1.9 15.2 6.5 22.7l3.9 6.6-2.7 4.7c-16.4 28.3-38.6 59.1-56.9 78.9-31 33.7-79 44.5-136.1 30.8-8.5-2-28.4-8.2-30.4-9.5-1.2-.7-1.4-4.7-1.5-22.7 0-19.5.3-25.6 2-38.5.7-5.2 4.9-20.4 7.4-26.6 3-7.4 5.4-11.9 9.4-17.6l3.5-4.9v56.2c0 30.9.2 56.5.5 56.7.9.9 14.7 4.3 23.7 5.9 34.4 5.9 64.2 2.5 89.7-10.3l6.1-3.1-.2-39.6c-.1-21.7.1-39.5.4-39.5.3.1 3.9 3.2 8 7 8.4 7.9 19.8 16.5 29.8 22.6l6.7 4.1 3.1-4.1c1.7-2.3 6.3-8.8 10.2-14.5l7.2-10.4-5.7-3.4c-25.7-15.4-45.8-36.7-57.3-60.5-2.2-4.5-5.2-9.5-6.7-11.1-5.8-6.1-4.3-5.9-55.2-5.9-25.6 0-48.2.3-50.1.7-11.9 2.1-31.2 17.1-42.4 32.9-8.5 11.9-19.2 36.7-21 49-.4 2.1-.8 4.1-1 4.5-.3.3-.7 2.7-1.1 5.1-.3 2.5-.8 5.6-1 7-1.3 8.5-1.7 15.2-2 28.3-.1 8.1-.4 15-.7 15.3-.3.3-2.1-.4-4-1.5-1.9-1-6.8-3.1-10.9-4.6-6.1-2.3-9.1-2.8-17.4-2.9-13.1-.1-15 .3-26.4 5.7-14.9 7-28.4 26.2-31.8 45-1.5 8.8-.7 26.8 1.6 35.1 4.2 15.2 12.5 30.2 18.3 33.2 5.8 3 14.8.4 17.9-5.3 2.3-4.3 1.4-9.4-3.5-18.4-12.2-22.7-11.3-45.4 2.5-60.4 7.1-7.7 16.5-10.5 26.5-7.9 3.6.9 27 11.7 30.1 13.8.3.2 1.1 5.2 1.8 11.1.8 6.6 5 13.3 9.9 15.8 4.6 2.4 12 2.6 16.3.3 3.7-1.8 8.1-6.9 8.9-10.1.5-2.1.9-2.2 3.7-1.3 3.1.9 16.6 4.6 19.7 5.3 7.9 1.9 16.5 3.5 21 4.1 3 .3 7.5 1 9.9 1.4 4.9.9 38.6.6 44.1-.4 20.9-3.8 32.2-7.2 45.8-13.8 22.5-11 37.9-24.8 61.8-55.4 8.5-10.8 30.9-43.8 35.7-52.4 1.3-2.5 3.2-5.9 4.2-7.5l1.8-3h10.1c9.5-.1 10.5-.3 17.6-3.7 4.1-2 9.1-5.2 11-7 4.2-4 9-10.3 9-11.7 0-1.7 2-2.3 3.6-1 .8.6 1.6 1 1.8.8 2.1-2.4 19.6-35.2 19.1-35.9-.4-.6-2.8-2.1-5.5-3.5s-5.1-2.9-5.5-3.4c-.5-.8 3.6-8.3 17.6-32.9 2.4-4.2 2.4-5.7 0-8.1-1.5-1.5-2.7-1.8-4.6-1.2-2.1.5-4.2 3.2-9.6 12.6-3.8 6.6-7.2 12.7-7.6 13.5-2.8 5.9-6.6 11-7.7 10.1-1.1-.9-25.2-14.3-32.9-18.4l-3.7-1.9 3.6-6.7c2-3.6 5.7-9.9 8-13.8 2.4-4 4.4-7.5 4.4-7.8 0-.3 1-2.2 2.3-4.3 1.3-2 2.1-4.6 1.9-5.7-.7-3.6-4.9-5.6-7.9-3.7z"/><path d="M377.7 223.6c-4.8 6.9-8.7 13-8.7 13.5 0 1.5 6.3 1 10.6-1 7.8-3.5 11.5-11.5 9.4-20.2-.7-2.7-1.5-4.9-1.9-4.9-.4 0-4.6 5.7-9.4 12.6zM278.6 310.7c-10 3.5-20.4 5.9-30.6 7-3 .3-6.4.7-7.5.8-1.1.1-2.6.3-3.3.4-1 .1-1.2 16.2-1 80.8.3 78 .4 80.9 2.3 84.8 4.7 9.5 13.2 14.9 24.1 15.2 11.6.3 21.1-5.5 25.8-15.7 2.1-4.4 2.1-5.6 2.3-90.8.1-66.1-.1-86.2-1-86.1-.7.1-5.7 1.7-11.1 3.6zM170.9 313.1c0 .8 0 37.8-.1 82.4 0 56.3.3 82.3 1.1 85.1 2.2 8.3 9.6 15.6 18.5 18.4 5.1 1.6 15.4.7 20.4-1.9 5.2-2.6 10-7.7 12.5-13.1 2.1-4.4 2.1-5.5 2.3-84.8l.2-80.2-5.7-.1c-5.6-.1-7.9-.2-16.7-1.3-10.4-1.2-22.7-3.4-29.6-5.1-2-.5-2.8-.3-2.9.6z"/></svg>